<?xml version="1.0" standalone="no"?>
<!DOCTYPE svg PUBLIC "-//W3C//DTD SVG 20010904//EN"
 "http://www.w3.org/TR/2001/REC-SVG-20010904/DTD/svg10.dtd">
<svg version="1.0" xmlns="http://www.w3.org/2000/svg"
 width="164.000000pt" height="164.000000pt" viewBox="0 0 164.000000 164.000000"
 preserveAspectRatio="xMidYMid meet">
<metadata>
Created by potrace 1.11, written by Peter Selinger 2001-2013
</metadata>
<g transform="translate(0.000000,164.000000) scale(0.100000,-0.100000)"
fill="#000000" stroke="none">
<path d="M690 1566 c-115 -31 -185 -88 -235 -189 -42 -87 -55 -150 -55 -271 1
-218 88 -438 203 -510 34 -21 63 -30 111 -33 53 -5 65 -9 69 -25 3 -11 0 -21
-6 -22 -95 -25 -134 -42 -168 -73 -41 -37 -60 -84 -52 -128 5 -21 -2 -35 -35
-68 -40 -41 -62 -82 -62 -115 0 -15 9 -17 62 -14 54 3 66 8 85 30 l23 27 25
-29 c46 -50 36 -22 -20 63 -46 69 -55 91 -55 127 0 58 36 98 112 124 74 26 98
26 98 1 0 -27 37 -51 78 -51 38 0 82 37 82 70 0 20 4 21 43 15 77 -12 101 -24
119 -59 14 -28 14 -37 4 -52 -11 -15 -17 -15 -47 -5 -85 31 -357 22 -434 -15
l-30 -14 45 5 c25 4 81 11 125 16 83 11 199 6 273 -13 36 -9 42 -14 42 -36 0
-14 -20 -63 -45 -109 -25 -45 -45 -85 -45 -87 0 -2 19 -6 42 -8 39 -4 43 -1
71 38 29 41 31 42 54 27 13 -9 30 -28 38 -43 13 -25 17 -26 77 -22 35 2 64 6
66 7 2 2 -1 21 -7 43 -12 43 -80 127 -111 137 -16 5 -20 15 -20 51 0 94 -59
144 -195 166 -80 13 -80 14 -83 46 -3 27 4 39 48 82 29 28 63 75 78 107 27 58
27 60 25 258 -2 221 -16 314 -60 404 -64 133 -187 187 -333 147z m127 -31 c32
-22 92 -118 114 -183 65 -185 83 -447 41 -586 -40 -130 -69 -155 -213 -186
-44 -10 -64 -10 -94 0 -191 63 -312 484 -214 745 11 30 41 77 66 105 85 94
238 148 300 105z"/>
<path d="M500 1283 c-34 -13 -60 -47 -60 -80 0 -71 62 -115 125 -89 40 17 55
42 55 89 0 58 -64 100 -120 80z"/>
<path d="M762 1267 c-31 -33 -30 -97 2 -133 61 -72 192 9 156 96 -25 61 -116
82 -158 37z"/>
<path d="M538 1071 c-36 -20 -70 -40 -74 -44 -4 -4 3 -22 16 -39 24 -33 27
-57 15 -135 -6 -34 -4 -43 8 -43 8 0 17 -10 20 -21 6 -21 9 -22 190 -17 101 2
189 8 196 13 17 10 6 185 -12 197 -7 4 -86 6 -177 3 l-165 -5 58 21 c68 25 86
49 62 85 -21 33 -55 30 -137 -15z m104 -1 c-2 -8 3 -10 13 -6 10 4 15 2 13 -5
-2 -7 -25 -20 -50 -30 -46 -18 -47 -18 -53 2 -8 24 -9 21 30 42 33 18 52 16
47 -3z m-95 -45 c8 -22 -6 -33 -17 -15 -13 20 -12 30 0 30 6 0 13 -7 17 -15z
m-37 -20 c10 -12 10 -15 -3 -15 -8 0 -20 7 -27 15 -10 12 -10 15 3 15 8 0 20
-7 27 -15z m170 -69 c0 -7 -9 -34 -20 -60 -18 -40 -25 -46 -51 -46 -24 0 -29
4 -25 18 3 9 8 31 11 47 l6 30 -16 -34 c-8 -18 -15 -40 -15 -47 0 -9 -11 -14
-30 -14 -36 0 -37 11 -11 72 l18 43 67 2 c50 2 66 0 66 -11z m167 0 c-3 -8
-11 -33 -17 -55 -10 -39 -13 -41 -50 -41 l-39 0 15 43 c8 23 16 48 19 55 2 6
21 12 41 12 27 0 35 -3 31 -14z m13 -88 c0 -5 -4 -8 -10 -8 -5 0 -10 10 -10
23 0 18 2 19 10 7 5 -8 10 -18 10 -22z m30 2 c0 -16 -4 -30 -10 -30 -11 0 -14
43 -3 53 11 12 13 8 13 -23z m-282 -47 c-10 -2 -28 -2 -40 0 -13 2 -5 4 17 4
22 1 32 -1 23 -4z m69 1 c-3 -3 -12 -4 -19 -1 -8 3 -5 6 6 6 11 1 17 -2 13 -5z"/>
<path d="M750 335 c0 -8 5 -15 10 -15 6 0 10 7 10 15 0 8 -4 15 -10 15 -5 0
-10 -7 -10 -15z"/>
<path d="M830 341 c0 -6 5 -13 10 -16 6 -3 10 1 10 9 0 9 -4 16 -10 16 -5 0
-10 -4 -10 -9z"/>
<path d="M930 340 c0 -5 7 -10 16 -10 8 0 12 5 9 10 -3 6 -10 10 -16 10 -5 0
-9 -4 -9 -10z"/>
<path d="M670 320 c0 -5 5 -10 10 -10 6 0 10 5 10 10 0 6 -4 10 -10 10 -5 0
-10 -4 -10 -10z"/>
<path d="M1020 321 c0 -6 5 -13 10 -16 6 -3 10 1 10 9 0 9 -4 16 -10 16 -5 0
-10 -4 -10 -9z"/>
</g>
</svg>
